<mxfile host="app.diagrams.net" modified="2024-04-24T13:34:47.498Z" agent="Mozilla/5.0 (Windows NT 10.0; Win64; x64; rv:109.0) Gecko/20100101 Firefox/113.0" etag="tSBp1mSMrpRHUbFlXOJw" version="24.2.8" type="device">
  <diagram name="Page-1" id="gZ2owAIogtQZYCgnZvjZ">
    <mxGraphModel dx="1430" dy="788" grid="1" gridSize="10" guides="1" tooltips="1" connect="1" arrows="1" fold="1" page="1" pageScale="1" pageWidth="850" pageHeight="1100" math="0" shadow="0">
      <root>
        <mxCell id="0" />
        <mxCell id="1" parent="0" />
        <mxCell id="5E7DoI3xS24oE3ILswI5-61" value="&lt;div&gt;Веб-браузер&lt;/div&gt;&lt;div&gt;&lt;br&gt;&lt;/div&gt;" style="verticalAlign=top;align=left;spacingTop=8;spacingLeft=2;spacingRight=12;shape=cube;size=10;direction=south;fontStyle=4;html=1;whiteSpace=wrap;" vertex="1" parent="1">
          <mxGeometry x="180" y="380" width="180" height="120" as="geometry" />
        </mxCell>
        <mxCell id="5E7DoI3xS24oE3ILswI5-62" value="Бэк-энд" style="verticalAlign=top;align=left;spacingTop=8;spacingLeft=2;spacingRight=12;shape=cube;size=10;direction=south;fontStyle=4;html=1;whiteSpace=wrap;" vertex="1" parent="1">
          <mxGeometry x="115" y="100" width="310" height="210" as="geometry" />
        </mxCell>
        <mxCell id="5E7DoI3xS24oE3ILswI5-63" value="Chrome" style="shape=module;align=left;spacingLeft=20;align=center;verticalAlign=top;whiteSpace=wrap;html=1;" vertex="1" parent="1">
          <mxGeometry x="230" y="420" width="100" height="50" as="geometry" />
        </mxCell>
        <mxCell id="5E7DoI3xS24oE3ILswI5-64" value="APACHE" style="shape=module;align=left;spacingLeft=20;align=center;verticalAlign=top;whiteSpace=wrap;html=1;" vertex="1" parent="1">
          <mxGeometry x="290" y="180" width="100" height="50" as="geometry" />
        </mxCell>
        <mxCell id="5E7DoI3xS24oE3ILswI5-73" style="edgeStyle=orthogonalEdgeStyle;rounded=0;orthogonalLoop=1;jettySize=auto;html=1;entryX=0.5;entryY=0;entryDx=0;entryDy=0;dashed=1;" edge="1" parent="1" source="5E7DoI3xS24oE3ILswI5-65" target="5E7DoI3xS24oE3ILswI5-66">
          <mxGeometry relative="1" as="geometry" />
        </mxCell>
        <mxCell id="5E7DoI3xS24oE3ILswI5-65" value="&lt;div&gt;PHP&lt;/div&gt;" style="html=1;whiteSpace=wrap;" vertex="1" parent="1">
          <mxGeometry x="140" y="130" width="110" height="50" as="geometry" />
        </mxCell>
        <mxCell id="5E7DoI3xS24oE3ILswI5-66" value="&lt;div&gt;MySQL&lt;/div&gt;" style="html=1;whiteSpace=wrap;" vertex="1" parent="1">
          <mxGeometry x="140" y="230" width="110" height="50" as="geometry" />
        </mxCell>
        <mxCell id="5E7DoI3xS24oE3ILswI5-69" value="" style="ellipse;whiteSpace=wrap;html=1;aspect=fixed;" vertex="1" parent="1">
          <mxGeometry x="330" y="250" width="20" height="20" as="geometry" />
        </mxCell>
        <mxCell id="5E7DoI3xS24oE3ILswI5-71" value="" style="endArrow=none;html=1;rounded=0;" edge="1" parent="1" source="5E7DoI3xS24oE3ILswI5-69" target="5E7DoI3xS24oE3ILswI5-64">
          <mxGeometry width="50" height="50" relative="1" as="geometry">
            <mxPoint x="360" y="410" as="sourcePoint" />
            <mxPoint x="550" y="370" as="targetPoint" />
          </mxGeometry>
        </mxCell>
        <mxCell id="5E7DoI3xS24oE3ILswI5-72" value="" style="endArrow=classic;html=1;rounded=0;exitX=0.5;exitY=0;exitDx=0;exitDy=0;entryX=1.005;entryY=0.434;entryDx=0;entryDy=0;entryPerimeter=0;dashed=1;startArrow=classic;startFill=1;" edge="1" parent="1" source="5E7DoI3xS24oE3ILswI5-64" target="5E7DoI3xS24oE3ILswI5-65">
          <mxGeometry width="50" height="50" relative="1" as="geometry">
            <mxPoint x="360" y="410" as="sourcePoint" />
            <mxPoint x="260" y="140" as="targetPoint" />
            <Array as="points">
              <mxPoint x="340" y="150" />
            </Array>
          </mxGeometry>
        </mxCell>
        <mxCell id="5E7DoI3xS24oE3ILswI5-74" style="edgeStyle=orthogonalEdgeStyle;rounded=0;orthogonalLoop=1;jettySize=auto;html=1;entryX=0.719;entryY=0.987;entryDx=0;entryDy=0;entryPerimeter=0;exitX=0.715;exitY=-0.051;exitDx=0;exitDy=0;exitPerimeter=0;dashed=1;" edge="1" parent="1">
          <mxGeometry relative="1" as="geometry">
            <mxPoint x="210.00000000000009" y="228.10000000000005" as="sourcePoint" />
            <mxPoint x="210.4399999999999" y="180.00000000000003" as="targetPoint" />
          </mxGeometry>
        </mxCell>
        <mxCell id="5E7DoI3xS24oE3ILswI5-75" value="" style="endArrow=classic;html=1;rounded=0;exitX=-0.017;exitY=0.513;exitDx=0;exitDy=0;exitPerimeter=0;entryX=0.5;entryY=1;entryDx=0;entryDy=0;dashed=1;endFill=1;startArrow=classic;startFill=1;" edge="1" parent="1" source="5E7DoI3xS24oE3ILswI5-61" target="5E7DoI3xS24oE3ILswI5-69">
          <mxGeometry width="50" height="50" relative="1" as="geometry">
            <mxPoint x="460" y="360" as="sourcePoint" />
            <mxPoint x="510" y="310" as="targetPoint" />
          </mxGeometry>
        </mxCell>
        <mxCell id="5E7DoI3xS24oE3ILswI5-76" value="&lt;div&gt;Обмен &lt;br&gt;&lt;/div&gt;&lt;div&gt;данными&lt;/div&gt;" style="text;html=1;align=center;verticalAlign=middle;whiteSpace=wrap;rounded=0;" vertex="1" parent="1">
          <mxGeometry x="300" y="330" width="60" height="30" as="geometry" />
        </mxCell>
      </root>
    </mxGraphModel>
  </diagram>
</mxfile>
